<mxfile host="Electron" modified="2024-11-11T22:11:44.846Z" agent="Mozilla/5.0 (Windows NT 10.0; Win64; x64) AppleWebKit/537.36 (KHTML, like Gecko) draw.io/24.1.0 Chrome/120.0.6099.109 Electron/28.1.0 Safari/537.36" etag="2zoSLe8GIpDGVkGeTjR9" version="24.1.0" type="device">
  <diagram name="Page-1" id="n9Txcn6Dk_RDGWLoqTtt">
    <mxGraphModel dx="803" dy="691" grid="1" gridSize="10" guides="1" tooltips="1" connect="1" arrows="1" fold="1" page="1" pageScale="1" pageWidth="400" pageHeight="300" math="0" shadow="0">
      <root>
        <mxCell id="0" />
        <mxCell id="1" parent="0" />
        <mxCell id="5JxGOsEsqNA9EZdTTbq--1" value="" style="rounded=0;whiteSpace=wrap;html=1;fillColor=#dae8fc;strokeColor=#6c8ebf;" parent="1" vertex="1">
          <mxGeometry x="410" y="70" width="410" height="390" as="geometry" />
        </mxCell>
        <mxCell id="5JxGOsEsqNA9EZdTTbq--22" value="AWS" style="rounded=0;whiteSpace=wrap;html=1;fillColor=#f5f5f5;fontColor=#333333;strokeColor=#666666;labelPosition=center;verticalLabelPosition=bottom;align=center;verticalAlign=top;spacing=-20;" parent="1" vertex="1">
          <mxGeometry x="420" y="120" width="360" height="330" as="geometry" />
        </mxCell>
        <mxCell id="5JxGOsEsqNA9EZdTTbq--25" value="Test Account" style="rounded=0;whiteSpace=wrap;html=1;labelPosition=center;verticalLabelPosition=top;align=center;verticalAlign=bottom;spacing=0;" parent="1" vertex="1">
          <mxGeometry x="432" y="140" width="130" height="290" as="geometry" />
        </mxCell>
        <mxCell id="5JxGOsEsqNA9EZdTTbq--26" value="us-east-1-vpc" style="rounded=1;whiteSpace=wrap;html=1;fillColor=#dae8fc;strokeColor=#6c8ebf;labelPosition=center;verticalLabelPosition=top;align=center;verticalAlign=bottom;spacing=-15;fontSize=9;" parent="1" vertex="1">
          <mxGeometry x="442" y="150" width="110" height="50" as="geometry" />
        </mxCell>
        <mxCell id="Yx133mVIW5-eKPwwrUVL-59" style="edgeStyle=orthogonalEdgeStyle;rounded=1;orthogonalLoop=1;jettySize=auto;html=1;entryX=0;entryY=0.5;entryDx=0;entryDy=0;curved=0;" edge="1" parent="1" source="5JxGOsEsqNA9EZdTTbq--18" target="Yx133mVIW5-eKPwwrUVL-53">
          <mxGeometry relative="1" as="geometry" />
        </mxCell>
        <mxCell id="5JxGOsEsqNA9EZdTTbq--18" value="" style="outlineConnect=0;dashed=0;verticalLabelPosition=bottom;verticalAlign=top;align=center;html=1;shape=mxgraph.aws3.internet_gateway;fillColor=#F58534;gradientColor=none;aspect=fixed;" parent="1" vertex="1">
          <mxGeometry x="520" y="163.25" width="22.53" height="23.5" as="geometry" />
        </mxCell>
        <mxCell id="5JxGOsEsqNA9EZdTTbq--44" value="AWS Backbone Routing Tester" style="text;html=1;align=center;verticalAlign=middle;resizable=0;points=[];autosize=1;strokeColor=none;fillColor=none;fontSize=18;" parent="1" vertex="1">
          <mxGeometry x="480" y="70" width="270" height="40" as="geometry" />
        </mxCell>
        <mxCell id="88BtFrj3Tb4GhETnJRn9-21" style="edgeStyle=orthogonalEdgeStyle;rounded=0;orthogonalLoop=1;jettySize=auto;html=1;endArrow=none;endFill=0;" parent="1" source="88BtFrj3Tb4GhETnJRn9-18" target="5JxGOsEsqNA9EZdTTbq--31" edge="1">
          <mxGeometry relative="1" as="geometry" />
        </mxCell>
        <mxCell id="Yx133mVIW5-eKPwwrUVL-2" style="edgeStyle=orthogonalEdgeStyle;rounded=0;orthogonalLoop=1;jettySize=auto;html=1;" edge="1" parent="1" source="88BtFrj3Tb4GhETnJRn9-18" target="5JxGOsEsqNA9EZdTTbq--18">
          <mxGeometry relative="1" as="geometry" />
        </mxCell>
        <mxCell id="88BtFrj3Tb4GhETnJRn9-18" value="ec2-sg" style="sketch=0;aspect=fixed;pointerEvents=1;shadow=0;dashed=0;html=1;strokeColor=none;labelPosition=center;verticalLabelPosition=bottom;verticalAlign=top;align=center;fillColor=#F58534;shape=mxgraph.mscae.enterprise.firewall;fontSize=9;spacing=-3;labelBackgroundColor=#DAE8FC;" parent="1" vertex="1">
          <mxGeometry x="486.52" y="170" width="11.37" height="10" as="geometry" />
        </mxCell>
        <mxCell id="5JxGOsEsqNA9EZdTTbq--31" value="ec2" style="outlineConnect=0;dashed=0;verticalLabelPosition=bottom;verticalAlign=top;align=center;html=1;shape=mxgraph.aws3.ec2;fillColor=#F58534;gradientColor=none;aspect=fixed;spacing=-6;labelBackgroundColor=#DAE8FC;fontSize=9;" parent="1" vertex="1">
          <mxGeometry x="453.39" y="165.62" width="15.42" height="18.75" as="geometry" />
        </mxCell>
        <mxCell id="Yx133mVIW5-eKPwwrUVL-28" value="us-east-2-vpc" style="rounded=1;whiteSpace=wrap;html=1;fillColor=#dae8fc;strokeColor=#6c8ebf;labelPosition=center;verticalLabelPosition=top;align=center;verticalAlign=bottom;spacing=-15;fontSize=9;" vertex="1" parent="1">
          <mxGeometry x="442" y="205" width="110" height="50" as="geometry" />
        </mxCell>
        <mxCell id="Yx133mVIW5-eKPwwrUVL-58" style="edgeStyle=orthogonalEdgeStyle;rounded=1;orthogonalLoop=1;jettySize=auto;html=1;entryX=0;entryY=0.5;entryDx=0;entryDy=0;curved=0;" edge="1" parent="1" source="Yx133mVIW5-eKPwwrUVL-29" target="Yx133mVIW5-eKPwwrUVL-53">
          <mxGeometry relative="1" as="geometry" />
        </mxCell>
        <mxCell id="Yx133mVIW5-eKPwwrUVL-29" value="" style="outlineConnect=0;dashed=0;verticalLabelPosition=bottom;verticalAlign=top;align=center;html=1;shape=mxgraph.aws3.internet_gateway;fillColor=#F58534;gradientColor=none;aspect=fixed;" vertex="1" parent="1">
          <mxGeometry x="520" y="218.25" width="22.53" height="23.5" as="geometry" />
        </mxCell>
        <mxCell id="Yx133mVIW5-eKPwwrUVL-30" style="edgeStyle=orthogonalEdgeStyle;rounded=0;orthogonalLoop=1;jettySize=auto;html=1;endArrow=none;endFill=0;" edge="1" parent="1" source="Yx133mVIW5-eKPwwrUVL-32" target="Yx133mVIW5-eKPwwrUVL-33">
          <mxGeometry relative="1" as="geometry" />
        </mxCell>
        <mxCell id="Yx133mVIW5-eKPwwrUVL-31" style="edgeStyle=orthogonalEdgeStyle;rounded=0;orthogonalLoop=1;jettySize=auto;html=1;" edge="1" parent="1" source="Yx133mVIW5-eKPwwrUVL-32" target="Yx133mVIW5-eKPwwrUVL-29">
          <mxGeometry relative="1" as="geometry" />
        </mxCell>
        <mxCell id="Yx133mVIW5-eKPwwrUVL-32" value="ec2-sg" style="sketch=0;aspect=fixed;pointerEvents=1;shadow=0;dashed=0;html=1;strokeColor=none;labelPosition=center;verticalLabelPosition=bottom;verticalAlign=top;align=center;fillColor=#F58534;shape=mxgraph.mscae.enterprise.firewall;fontSize=9;spacing=-3;labelBackgroundColor=#DAE8FC;" vertex="1" parent="1">
          <mxGeometry x="486.52" y="225" width="11.37" height="10" as="geometry" />
        </mxCell>
        <mxCell id="Yx133mVIW5-eKPwwrUVL-33" value="ec2" style="outlineConnect=0;dashed=0;verticalLabelPosition=bottom;verticalAlign=top;align=center;html=1;shape=mxgraph.aws3.ec2;fillColor=#F58534;gradientColor=none;aspect=fixed;spacing=-6;labelBackgroundColor=#DAE8FC;fontSize=9;" vertex="1" parent="1">
          <mxGeometry x="453.39" y="220.62" width="15.42" height="18.75" as="geometry" />
        </mxCell>
        <mxCell id="Yx133mVIW5-eKPwwrUVL-34" value="us-west-1-vpc" style="rounded=1;whiteSpace=wrap;html=1;fillColor=#dae8fc;strokeColor=#6c8ebf;labelPosition=center;verticalLabelPosition=top;align=center;verticalAlign=bottom;spacing=-15;fontSize=9;" vertex="1" parent="1">
          <mxGeometry x="442" y="260" width="110" height="50" as="geometry" />
        </mxCell>
        <mxCell id="Yx133mVIW5-eKPwwrUVL-55" style="edgeStyle=orthogonalEdgeStyle;rounded=0;orthogonalLoop=1;jettySize=auto;html=1;" edge="1" parent="1" source="Yx133mVIW5-eKPwwrUVL-35" target="Yx133mVIW5-eKPwwrUVL-53">
          <mxGeometry relative="1" as="geometry" />
        </mxCell>
        <mxCell id="Yx133mVIW5-eKPwwrUVL-35" value="" style="outlineConnect=0;dashed=0;verticalLabelPosition=bottom;verticalAlign=top;align=center;html=1;shape=mxgraph.aws3.internet_gateway;fillColor=#F58534;gradientColor=none;aspect=fixed;" vertex="1" parent="1">
          <mxGeometry x="520" y="273.25" width="22.53" height="23.5" as="geometry" />
        </mxCell>
        <mxCell id="Yx133mVIW5-eKPwwrUVL-36" style="edgeStyle=orthogonalEdgeStyle;rounded=0;orthogonalLoop=1;jettySize=auto;html=1;endArrow=none;endFill=0;" edge="1" parent="1" source="Yx133mVIW5-eKPwwrUVL-38" target="Yx133mVIW5-eKPwwrUVL-39">
          <mxGeometry relative="1" as="geometry" />
        </mxCell>
        <mxCell id="Yx133mVIW5-eKPwwrUVL-37" style="edgeStyle=orthogonalEdgeStyle;rounded=0;orthogonalLoop=1;jettySize=auto;html=1;" edge="1" parent="1" source="Yx133mVIW5-eKPwwrUVL-38" target="Yx133mVIW5-eKPwwrUVL-35">
          <mxGeometry relative="1" as="geometry" />
        </mxCell>
        <mxCell id="Yx133mVIW5-eKPwwrUVL-38" value="ec2-sg" style="sketch=0;aspect=fixed;pointerEvents=1;shadow=0;dashed=0;html=1;strokeColor=none;labelPosition=center;verticalLabelPosition=bottom;verticalAlign=top;align=center;fillColor=#F58534;shape=mxgraph.mscae.enterprise.firewall;fontSize=9;spacing=-3;labelBackgroundColor=#DAE8FC;" vertex="1" parent="1">
          <mxGeometry x="486.52" y="280" width="11.37" height="10" as="geometry" />
        </mxCell>
        <mxCell id="Yx133mVIW5-eKPwwrUVL-39" value="ec2" style="outlineConnect=0;dashed=0;verticalLabelPosition=bottom;verticalAlign=top;align=center;html=1;shape=mxgraph.aws3.ec2;fillColor=#F58534;gradientColor=none;aspect=fixed;spacing=-6;labelBackgroundColor=#DAE8FC;fontSize=9;" vertex="1" parent="1">
          <mxGeometry x="453.39" y="275.62" width="15.42" height="18.75" as="geometry" />
        </mxCell>
        <mxCell id="Yx133mVIW5-eKPwwrUVL-40" value="us-west-2-vpc" style="rounded=1;whiteSpace=wrap;html=1;fillColor=#dae8fc;strokeColor=#6c8ebf;labelPosition=center;verticalLabelPosition=top;align=center;verticalAlign=bottom;spacing=-15;fontSize=9;" vertex="1" parent="1">
          <mxGeometry x="442" y="316" width="110" height="50" as="geometry" />
        </mxCell>
        <mxCell id="Yx133mVIW5-eKPwwrUVL-56" style="edgeStyle=orthogonalEdgeStyle;rounded=1;orthogonalLoop=1;jettySize=auto;html=1;entryX=0;entryY=0.5;entryDx=0;entryDy=0;curved=0;" edge="1" parent="1" source="Yx133mVIW5-eKPwwrUVL-41" target="Yx133mVIW5-eKPwwrUVL-53">
          <mxGeometry relative="1" as="geometry" />
        </mxCell>
        <mxCell id="Yx133mVIW5-eKPwwrUVL-41" value="" style="outlineConnect=0;dashed=0;verticalLabelPosition=bottom;verticalAlign=top;align=center;html=1;shape=mxgraph.aws3.internet_gateway;fillColor=#F58534;gradientColor=none;aspect=fixed;" vertex="1" parent="1">
          <mxGeometry x="520" y="329.25" width="22.53" height="23.5" as="geometry" />
        </mxCell>
        <mxCell id="Yx133mVIW5-eKPwwrUVL-42" style="edgeStyle=orthogonalEdgeStyle;rounded=0;orthogonalLoop=1;jettySize=auto;html=1;endArrow=none;endFill=0;" edge="1" parent="1" source="Yx133mVIW5-eKPwwrUVL-44" target="Yx133mVIW5-eKPwwrUVL-45">
          <mxGeometry relative="1" as="geometry" />
        </mxCell>
        <mxCell id="Yx133mVIW5-eKPwwrUVL-43" style="edgeStyle=orthogonalEdgeStyle;rounded=0;orthogonalLoop=1;jettySize=auto;html=1;" edge="1" parent="1" source="Yx133mVIW5-eKPwwrUVL-44" target="Yx133mVIW5-eKPwwrUVL-41">
          <mxGeometry relative="1" as="geometry" />
        </mxCell>
        <mxCell id="Yx133mVIW5-eKPwwrUVL-44" value="ec2-sg" style="sketch=0;aspect=fixed;pointerEvents=1;shadow=0;dashed=0;html=1;strokeColor=none;labelPosition=center;verticalLabelPosition=bottom;verticalAlign=top;align=center;fillColor=#F58534;shape=mxgraph.mscae.enterprise.firewall;fontSize=9;spacing=-3;labelBackgroundColor=#DAE8FC;" vertex="1" parent="1">
          <mxGeometry x="486.52" y="336" width="11.37" height="10" as="geometry" />
        </mxCell>
        <mxCell id="Yx133mVIW5-eKPwwrUVL-45" value="ec2" style="outlineConnect=0;dashed=0;verticalLabelPosition=bottom;verticalAlign=top;align=center;html=1;shape=mxgraph.aws3.ec2;fillColor=#F58534;gradientColor=none;aspect=fixed;spacing=-6;labelBackgroundColor=#DAE8FC;fontSize=9;" vertex="1" parent="1">
          <mxGeometry x="453.39" y="331.62" width="15.42" height="18.75" as="geometry" />
        </mxCell>
        <mxCell id="Yx133mVIW5-eKPwwrUVL-46" value="tel-aviv-1-vpc" style="rounded=1;whiteSpace=wrap;html=1;fillColor=#dae8fc;strokeColor=#6c8ebf;labelPosition=center;verticalLabelPosition=top;align=center;verticalAlign=bottom;spacing=-15;fontSize=9;" vertex="1" parent="1">
          <mxGeometry x="442" y="371" width="110" height="50" as="geometry" />
        </mxCell>
        <mxCell id="Yx133mVIW5-eKPwwrUVL-57" style="edgeStyle=orthogonalEdgeStyle;rounded=1;orthogonalLoop=1;jettySize=auto;html=1;entryX=0;entryY=0.5;entryDx=0;entryDy=0;curved=0;" edge="1" parent="1" source="Yx133mVIW5-eKPwwrUVL-47" target="Yx133mVIW5-eKPwwrUVL-53">
          <mxGeometry relative="1" as="geometry" />
        </mxCell>
        <mxCell id="Yx133mVIW5-eKPwwrUVL-47" value="" style="outlineConnect=0;dashed=0;verticalLabelPosition=bottom;verticalAlign=top;align=center;html=1;shape=mxgraph.aws3.internet_gateway;fillColor=#F58534;gradientColor=none;aspect=fixed;" vertex="1" parent="1">
          <mxGeometry x="520" y="384.25" width="22.53" height="23.5" as="geometry" />
        </mxCell>
        <mxCell id="Yx133mVIW5-eKPwwrUVL-48" style="edgeStyle=orthogonalEdgeStyle;rounded=0;orthogonalLoop=1;jettySize=auto;html=1;endArrow=none;endFill=0;" edge="1" parent="1" source="Yx133mVIW5-eKPwwrUVL-50" target="Yx133mVIW5-eKPwwrUVL-51">
          <mxGeometry relative="1" as="geometry" />
        </mxCell>
        <mxCell id="Yx133mVIW5-eKPwwrUVL-49" style="edgeStyle=orthogonalEdgeStyle;rounded=0;orthogonalLoop=1;jettySize=auto;html=1;" edge="1" parent="1" source="Yx133mVIW5-eKPwwrUVL-50" target="Yx133mVIW5-eKPwwrUVL-47">
          <mxGeometry relative="1" as="geometry" />
        </mxCell>
        <mxCell id="Yx133mVIW5-eKPwwrUVL-50" value="ec2-sg" style="sketch=0;aspect=fixed;pointerEvents=1;shadow=0;dashed=0;html=1;strokeColor=none;labelPosition=center;verticalLabelPosition=bottom;verticalAlign=top;align=center;fillColor=#F58534;shape=mxgraph.mscae.enterprise.firewall;fontSize=9;spacing=-3;labelBackgroundColor=#DAE8FC;" vertex="1" parent="1">
          <mxGeometry x="486.52" y="391" width="11.37" height="10" as="geometry" />
        </mxCell>
        <mxCell id="Yx133mVIW5-eKPwwrUVL-51" value="ec2" style="outlineConnect=0;dashed=0;verticalLabelPosition=bottom;verticalAlign=top;align=center;html=1;shape=mxgraph.aws3.ec2;fillColor=#F58534;gradientColor=none;aspect=fixed;spacing=-6;labelBackgroundColor=#DAE8FC;fontSize=9;" vertex="1" parent="1">
          <mxGeometry x="453.39" y="386.62" width="15.42" height="18.75" as="geometry" />
        </mxCell>
        <mxCell id="Yx133mVIW5-eKPwwrUVL-62" style="edgeStyle=orthogonalEdgeStyle;rounded=0;orthogonalLoop=1;jettySize=auto;html=1;" edge="1" parent="1" source="Yx133mVIW5-eKPwwrUVL-53" target="Yx133mVIW5-eKPwwrUVL-60">
          <mxGeometry relative="1" as="geometry" />
        </mxCell>
        <mxCell id="Yx133mVIW5-eKPwwrUVL-63" style="edgeStyle=orthogonalEdgeStyle;rounded=1;orthogonalLoop=1;jettySize=auto;html=1;entryX=0;entryY=0.5;entryDx=0;entryDy=0;curved=0;" edge="1" parent="1" source="Yx133mVIW5-eKPwwrUVL-53" target="Yx133mVIW5-eKPwwrUVL-54">
          <mxGeometry relative="1" as="geometry">
            <Array as="points">
              <mxPoint x="710" y="285" />
              <mxPoint x="710" y="233" />
              <mxPoint x="711" y="233" />
              <mxPoint x="711" y="173" />
            </Array>
          </mxGeometry>
        </mxCell>
        <mxCell id="Yx133mVIW5-eKPwwrUVL-64" style="edgeStyle=orthogonalEdgeStyle;rounded=1;orthogonalLoop=1;jettySize=auto;html=1;entryX=0;entryY=0.5;entryDx=0;entryDy=0;curved=0;" edge="1" parent="1" source="Yx133mVIW5-eKPwwrUVL-53" target="Yx133mVIW5-eKPwwrUVL-61">
          <mxGeometry relative="1" as="geometry">
            <Array as="points">
              <mxPoint x="710" y="285" />
              <mxPoint x="710" y="393" />
            </Array>
          </mxGeometry>
        </mxCell>
        <mxCell id="Yx133mVIW5-eKPwwrUVL-53" value="AWS Backbone" style="rounded=1;whiteSpace=wrap;html=1;" vertex="1" parent="1">
          <mxGeometry x="605.9499999999999" y="264.99" width="92.1" height="40" as="geometry" />
        </mxCell>
        <mxCell id="Yx133mVIW5-eKPwwrUVL-54" value="Public Internet" style="image;aspect=fixed;perimeter=ellipsePerimeter;html=1;align=center;shadow=0;dashed=0;spacingTop=3;image=img/lib/active_directory/internet_cloud.svg;labelPosition=center;verticalLabelPosition=middle;verticalAlign=middle;labelBackgroundColor=none;fontColor=#DAE8FC;" vertex="1" parent="1">
          <mxGeometry x="731" y="145.25" width="86.9" height="54.75" as="geometry" />
        </mxCell>
        <mxCell id="Yx133mVIW5-eKPwwrUVL-60" value="Public VIF" style="image;aspect=fixed;perimeter=ellipsePerimeter;html=1;align=center;shadow=0;dashed=0;spacingTop=3;image=img/lib/active_directory/internet_cloud.svg;labelPosition=center;verticalLabelPosition=middle;verticalAlign=middle;labelBackgroundColor=none;fontColor=#DAE8FC;" vertex="1" parent="1">
          <mxGeometry x="731" y="257" width="86.9" height="54.75" as="geometry" />
        </mxCell>
        <mxCell id="Yx133mVIW5-eKPwwrUVL-61" value="Cloud&lt;div&gt;Exchange&lt;/div&gt;" style="image;aspect=fixed;perimeter=ellipsePerimeter;html=1;align=center;shadow=0;dashed=0;spacingTop=3;image=img/lib/active_directory/internet_cloud.svg;labelPosition=center;verticalLabelPosition=middle;verticalAlign=middle;labelBackgroundColor=none;fontColor=#DAE8FC;" vertex="1" parent="1">
          <mxGeometry x="731" y="366" width="86.9" height="54.75" as="geometry" />
        </mxCell>
      </root>
    </mxGraphModel>
  </diagram>
</mxfile>
